<svg width="20" height="20" viewBox="0 0 20 20" fill="none" xmlns="http://www.w3.org/2000/svg">
<path d="M15 17.5L5 17.5C4.172 17.5 3.5 16.828 3.5 16L3.5 11C3.5 10.172 4.172 9.5 5 9.5L15 9.5C15.828 9.5 16.5 10.172 16.5 11V16C16.5 16.828 15.828 17.5 15 17.5Z" stroke="#171A1F" stroke-linecap="round" stroke-linejoin="round"/>
<path d="M6.5 7.5V6C6.5 4.067 8.067 2.5 10 2.5C11.933 2.5 13.5 4.067 13.5 6V7.5" stroke="#171A1F" stroke-linecap="round" stroke-linejoin="round"/>
<path d="M10 15C10.8284 15 11.5 14.3284 11.5 13.5C11.5 12.6716 10.8284 12 10 12C9.17157 12 8.5 12.6716 8.5 13.5C8.5 14.3284 9.17157 15 10 15Z" stroke="#171A1F" stroke-linecap="round" stroke-linejoin="round"/>
</svg>
